<svg width="42" height="42" viewBox="0 0 42 42" fill="none" xmlns="http://www.w3.org/2000/svg">
<path d="M36.2103 4.58203H6.75121C6.04275 4.58203 5.47038 5.1544 5.47038 5.86286V35.322C5.47038 36.0304 6.04275 36.6028 6.75121 36.6028H36.2103C36.9188 36.6028 37.4912 36.0304 37.4912 35.322V5.86286C37.4912 5.1544 36.9188 4.58203 36.2103 4.58203ZM32.5119 13.9281H29.9543C27.949 13.9281 27.5607 14.8807 27.5607 16.2816V19.3676H32.3478L31.7234 24.1988H27.5607V36.6028H22.5695V24.2028H18.3948V19.3676H22.5695V15.8053C22.5695 11.6706 25.0951 9.41717 28.7855 9.41717C30.5547 9.41717 32.0716 9.54925 32.5159 9.60929V13.9281H32.5119Z" fill="#FF5722"/>
</svg>
