<svg width="41" height="42" viewBox="0 0 41 42" fill="none" xmlns="http://www.w3.org/2000/svg">
<path d="M37.1449 10.2776C35.9201 10.8059 34.5873 11.1862 33.2144 11.3343C34.6398 10.4875 35.7072 9.14964 36.2163 7.57182C34.8788 8.3675 33.4135 8.92544 31.8855 9.22089C31.2469 8.53816 30.4745 7.99426 29.6165 7.62309C28.7584 7.25192 27.8332 7.06143 26.8983 7.06349C23.1158 7.06349 20.0739 10.1295 20.0739 13.8919C20.0739 14.4203 20.1379 14.9486 20.242 15.4569C14.5783 15.1607 9.52702 12.455 6.16884 8.3123C5.55695 9.35744 5.23629 10.5475 5.24024 11.7585C5.24024 14.1281 6.44502 16.2174 8.28221 17.4462C7.19953 17.4036 6.1422 17.106 5.19621 16.5777V16.6617C5.19621 19.9799 7.54173 22.7297 10.6678 23.3621C10.0808 23.5145 9.47702 23.5925 8.8706 23.5942C8.42631 23.5942 8.00604 23.5502 7.58176 23.4902C8.44632 26.1959 10.964 28.1612 13.9619 28.2252C11.6164 30.0624 8.67847 31.1431 5.4884 31.1431C4.91603 31.1431 4.38769 31.1231 3.83933 31.0591C6.8653 33.0003 10.4556 34.121 14.3221 34.121C26.8743 34.121 33.7427 23.7223 33.7427 14.6964C33.7427 14.4003 33.7427 14.1041 33.7227 13.8079C35.0516 12.8352 36.2163 11.6305 37.1449 10.2776Z" fill="#FF5722"/>
</svg>
