<svg width="42" height="42" viewBox="0 0 42 42" fill="none" xmlns="http://www.w3.org/2000/svg">
<path d="M36.1981 4.58203H6.73898C6.03052 4.58203 5.45815 5.1544 5.45815 5.86286V35.322C5.45815 36.0304 6.03052 36.6028 6.73898 36.6028H36.1981C36.9066 36.6028 37.4789 36.0304 37.4789 35.322V5.86286C37.4789 5.1544 36.9066 4.58203 36.1981 4.58203ZM14.9563 31.8677H10.2052V16.5858H14.9563V31.8677ZM12.5828 14.4965C12.0381 14.4965 11.5057 14.335 11.0528 14.0324C10.6 13.7298 10.247 13.2997 10.0386 12.7965C9.83017 12.2933 9.77564 11.7396 9.88189 11.2054C9.98815 10.6713 10.2504 10.1806 10.6355 9.79546C11.0207 9.41033 11.5113 9.14806 12.0455 9.0418C12.5797 8.93555 13.1334 8.99008 13.6366 9.19851C14.1398 9.40694 14.5699 9.7599 14.8725 10.2128C15.175 10.6656 15.3366 11.198 15.3366 11.7427C15.3326 13.2637 14.0998 14.4965 12.5828 14.4965ZM32.7439 31.8677H27.9968V24.4349C27.9968 22.6618 27.9648 20.3843 25.5272 20.3843C23.0576 20.3843 22.6773 22.3135 22.6773 24.3068V31.8677H17.9342V16.5858H22.4892V18.6752H22.5532C23.1856 17.4744 24.7347 16.2056 27.0482 16.2056C31.8593 16.2056 32.7439 19.3716 32.7439 23.4863V31.8677Z" fill="#FF5722"/>
</svg>
