<svg width="23" height="28" viewBox="0 0 23 28" fill="none" xmlns="http://www.w3.org/2000/svg">
<g clip-path="url(#clip0_20_1810)">
<path d="M11.4999 17.0859C14.4553 17.0859 16.8588 14.6893 16.8588 11.7422C16.8588 8.79511 14.4553 6.39844 11.4999 6.39844C8.54438 6.39844 6.14088 8.79511 6.14088 11.7422C6.14088 14.6893 8.54438 17.0859 11.4999 17.0859ZM11.4999 9.07031C12.9776 9.07031 14.1793 10.2686 14.1793 11.7422C14.1793 13.2157 12.9776 14.4141 11.4999 14.4141C10.0221 14.4141 8.82037 13.2157 8.82037 11.7422C8.82037 10.2686 10.0221 9.07031 11.4999 9.07031Z" fill="#FF5722"/>
<path d="M10.4412 27.525C10.6679 27.6864 10.9396 27.7732 11.2182 27.7732C11.4969 27.7732 11.7685 27.6864 11.9953 27.525C12.4026 27.2377 21.975 20.3456 21.9362 11.7422C21.9362 5.84937 17.1278 1.05469 11.2182 1.05469C5.30861 1.05469 0.500271 5.84937 0.500271 11.7355C0.461418 20.3456 10.0339 27.2377 10.4412 27.525ZM11.2182 3.72656C15.6514 3.72656 19.2567 7.32157 19.2567 11.7489C19.2848 17.6778 13.3779 23.0015 11.2182 24.7475C9.05989 23.0001 3.15162 17.6751 3.17976 11.7422C3.17976 7.32157 6.78501 3.72656 11.2182 3.72656Z" fill="#FF5722"/>
</g>
<defs>
<clipPath id="clip0_20_1810">
<rect width="22" height="27" fill="white" transform="translate(0.5 0.914062)"/>
</clipPath>
</defs>
</svg>
