<svg width="0" height="0" class="hidden">
  <symbol fill="none" xmlns="http://www.w3.org/2000/svg" viewBox="0 0 16 28" id="ic_baseline-phone-android">
    <g clip-path="url(#clip0_20_1816)">
      <path d="M12.2223 1.67505H3.33346C1.48901 1.67505 0.00012207 3.22689 0.00012207 5.14931V23.6787C0.00012207 25.6012 1.48901 27.153 3.33346 27.153H12.2223C14.0668 27.153 15.5557 25.6012 15.5557 23.6787V5.14931C15.5557 3.22689 14.0668 1.67505 12.2223 1.67505ZM10.0001 24.8368H5.55568V23.6787H10.0001V24.8368ZM13.6112 21.3625H1.94457V5.14931H13.6112V21.3625Z" fill="#FF5722"></path>
    </g>
    <defs>
      <clipPath id="clip0_20_1816">
        <rect width="16" height="27" fill="white" transform="translate(0 0.914062)"></rect>
      </clipPath>
    </defs>
  </symbol>
  <symbol fill="none" xmlns="http://www.w3.org/2000/svg" viewBox="0 0 23 28" id="bx_bx-map">
    <g clip-path="url(#clip0_20_1810)">
      <path d="M11.4999 17.0859C14.4553 17.0859 16.8588 14.6893 16.8588 11.7422C16.8588 8.79511 14.4553 6.39844 11.4999 6.39844C8.54438 6.39844 6.14088 8.79511 6.14088 11.7422C6.14088 14.6893 8.54438 17.0859 11.4999 17.0859ZM11.4999 9.07031C12.9776 9.07031 14.1793 10.2686 14.1793 11.7422C14.1793 13.2157 12.9776 14.4141 11.4999 14.4141C10.0221 14.4141 8.82037 13.2157 8.82037 11.7422C8.82037 10.2686 10.0221 9.07031 11.4999 9.07031Z" fill="#FF5722"></path>
      <path d="M10.4412 27.525C10.6679 27.6864 10.9396 27.7732 11.2182 27.7732C11.4969 27.7732 11.7685 27.6864 11.9953 27.525C12.4026 27.2377 21.975 20.3456 21.9362 11.7422C21.9362 5.84937 17.1278 1.05469 11.2182 1.05469C5.30861 1.05469 0.500271 5.84937 0.500271 11.7355C0.461418 20.3456 10.0339 27.2377 10.4412 27.525ZM11.2182 3.72656C15.6514 3.72656 19.2567 7.32157 19.2567 11.7489C19.2848 17.6778 13.3779 23.0015 11.2182 24.7475C9.05989 23.0001 3.15162 17.6751 3.17976 11.7422C3.17976 7.32157 6.78501 3.72656 11.2182 3.72656Z" fill="#FF5722"></path>
    </g>
    <defs>
      <clipPath id="clip0_20_1810">
        <rect width="22" height="27" fill="white" transform="translate(0.5 0.914062)"></rect>
      </clipPath>
    </defs>
  </symbol>
  <symbol fill="none" xmlns="http://www.w3.org/2000/svg" viewBox="0 0 28 23" id="ant-design_mail-outlined">
    <g clip-path="url(#clip0_20_1822)">
      <path d="M25.8125 1.60156H1.4375C0.918945 1.60156 0.5 2.02051 0.5 2.53906V21.2891C0.5 21.8076 0.918945 22.2266 1.4375 22.2266H25.8125C26.3311 22.2266 26.75 21.8076 26.75 21.2891V2.53906C26.75 2.02051 26.3311 1.60156 25.8125 1.60156ZM24.6406 4.84766V20.1172H2.60938V4.84766L1.80078 4.21777L2.95215 2.73828L4.20605 3.71387H23.0469L24.3008 2.73828L25.4521 4.21777L24.6406 4.84766ZM23.0469 3.71094L13.625 11.0352L4.20312 3.71094L2.94922 2.73535L1.79785 4.21484L2.60645 4.84473L12.6143 12.626C12.9021 12.8496 13.2561 12.9709 13.6206 12.9709C13.9851 12.9709 14.3391 12.8496 14.627 12.626L24.6406 4.84766L25.4492 4.21777L24.2979 2.73828L23.0469 3.71094Z" fill="#FF5722"></path>
    </g>
    <defs>
      <clipPath id="clip0_20_1822">
        <rect width="27" height="22" fill="white" transform="translate(0.5 0.914062)"></rect>
      </clipPath>
    </defs>
  </symbol>
  
  <symbol fill="none" xmlns="http://www.w3.org/2000/svg" viewBox="0 0 41 42" id="ant-design_twitter-outlined">
    <path d="M37.1449 10.2776C35.9201 10.8059 34.5873 11.1862 33.2144 11.3343C34.6398 10.4875 35.7072 9.14964 36.2163 7.57182C34.8788 8.3675 33.4135 8.92544 31.8855 9.22089C31.2469 8.53816 30.4745 7.99426 29.6165 7.62309C28.7584 7.25192 27.8332 7.06143 26.8983 7.06349C23.1158 7.06349 20.0739 10.1295 20.0739 13.8919C20.0739 14.4203 20.1379 14.9486 20.242 15.4569C14.5783 15.1607 9.52702 12.455 6.16884 8.3123C5.55695 9.35744 5.23629 10.5475 5.24024 11.7585C5.24024 14.1281 6.44502 16.2174 8.28221 17.4462C7.19953 17.4036 6.1422 17.106 5.19621 16.5777V16.6617C5.19621 19.9799 7.54173 22.7297 10.6678 23.3621C10.0808 23.5145 9.47702 23.5925 8.8706 23.5942C8.42631 23.5942 8.00604 23.5502 7.58176 23.4902C8.44632 26.1959 10.964 28.1612 13.9619 28.2252C11.6164 30.0624 8.67847 31.1431 5.4884 31.1431C4.91603 31.1431 4.38769 31.1231 3.83933 31.0591C6.8653 33.0003 10.4556 34.121 14.3221 34.121C26.8743 34.121 33.7427 23.7223 33.7427 14.6964C33.7427 14.4003 33.7427 14.1041 33.7227 13.8079C35.0516 12.8352 36.2163 11.6305 37.1449 10.2776Z" fill="#FF5722"></path>
  </symbol>
  <symbol fill="none" xmlns="http://www.w3.org/2000/svg" viewBox="0 0 42 42" id="ant-design_facebook-filled">
    <path d="M36.2103 4.58203H6.75121C6.04275 4.58203 5.47038 5.1544 5.47038 5.86286V35.322C5.47038 36.0304 6.04275 36.6028 6.75121 36.6028H36.2103C36.9188 36.6028 37.4912 36.0304 37.4912 35.322V5.86286C37.4912 5.1544 36.9188 4.58203 36.2103 4.58203ZM32.5119 13.9281H29.9543C27.949 13.9281 27.5607 14.8807 27.5607 16.2816V19.3676H32.3478L31.7234 24.1988H27.5607V36.6028H22.5695V24.2028H18.3948V19.3676H22.5695V15.8053C22.5695 11.6706 25.0951 9.41717 28.7855 9.41717C30.5547 9.41717 32.0716 9.54925 32.5159 9.60929V13.9281H32.5119Z" fill="#FF5722"></path>
  </symbol>
  <symbol fill="none" xmlns="http://www.w3.org/2000/svg" viewBox="0 0 42 42" id="ant-design_linkedin-filled">
    <path d="M36.1981 4.58203H6.73898C6.03052 4.58203 5.45815 5.1544 5.45815 5.86286V35.322C5.45815 36.0304 6.03052 36.6028 6.73898 36.6028H36.1981C36.9066 36.6028 37.4789 36.0304 37.4789 35.322V5.86286C37.4789 5.1544 36.9066 4.58203 36.1981 4.58203ZM14.9563 31.8677H10.2052V16.5858H14.9563V31.8677ZM12.5828 14.4965C12.0381 14.4965 11.5057 14.335 11.0528 14.0324C10.6 13.7298 10.247 13.2997 10.0386 12.7965C9.83017 12.2933 9.77564 11.7396 9.88189 11.2054C9.98815 10.6713 10.2504 10.1806 10.6355 9.79546C11.0207 9.41033 11.5113 9.14806 12.0455 9.0418C12.5797 8.93555 13.1334 8.99008 13.6366 9.19851C14.1398 9.40694 14.5699 9.7599 14.8725 10.2128C15.175 10.6656 15.3366 11.198 15.3366 11.7427C15.3326 13.2637 14.0998 14.4965 12.5828 14.4965ZM32.7439 31.8677H27.9968V24.4349C27.9968 22.6618 27.9648 20.3843 25.5272 20.3843C23.0576 20.3843 22.6773 22.3135 22.6773 24.3068V31.8677H17.9342V16.5858H22.4892V18.6752H22.5532C23.1856 17.4744 24.7347 16.2056 27.0482 16.2056C31.8593 16.2056 32.7439 19.3716 32.7439 23.4863V31.8677Z" fill="#FF5722"></path>
  </symbol>

</svg>