<?xml version="1.0" standalone="no"?>
<!DOCTYPE svg PUBLIC "-//W3C//DTD SVG 20010904//EN"
 "http://www.w3.org/TR/2001/REC-SVG-20010904/DTD/svg10.dtd">
<svg version="1.0" xmlns="http://www.w3.org/2000/svg"
 width="1680.000000pt" height="390.000000pt" viewBox="0 0 1680.000000 390.000000"
 preserveAspectRatio="xMidYMid meet">

<g transform="translate(0.000000,390.000000) scale(0.100000,-0.100000)"
fill="#000000" stroke="none">
<path d="M15830 3655 l0 -245 485 0 485 0 0 245 0 245 -485 0 -485 0 0 -245z"/>
<path d="M1950 2455 l0 -485 1455 0 1455 0 0 485 0 485 -1455 0 -1455 0 0
-485z"/>
<path d="M11040 2440 l0 -490 -1297 -2 -1298 -3 -3 -242 -2 -243 286 0 287 0
-5 -142 c-5 -119 -10 -157 -33 -228 -98 -307 -339 -520 -655 -580 -93 -18
-265 -13 -355 10 -282 71 -512 289 -606 575 -22 67 -23 87 -29 460 l-5 390
-243 3 -244 2 5 -387 c5 -420 11 -477 73 -661 140 -420 486 -736 934 -855 107
-28 128 -30 295 -31 162 -1 191 2 292 26 272 65 514 198 700 386 93 94 160
188 223 312 88 176 127 338 137 572 l6 148 1221 2 1221 3 75 23 c93 29 199 84
266 138 l51 42 60 -47 c98 -76 223 -131 345 -151 208 -33 424 21 589 149 l63
49 37 -31 c51 -44 137 -94 206 -122 141 -57 84 -55 1688 -55 l1475 0 0 735 0
735 -242 -2 -243 -3 -3 -487 -2 -488 -525 0 -525 0 0 490 0 490 -245 0 -245 0
0 -490 0 -490 -457 0 -458 0 -50 24 c-59 27 -107 72 -138 130 -21 40 -22 53
-27 431 l-5 390 -242 3 -242 2 -3 -387 -3 -388 -27 -51 c-28 -53 -76 -102
-131 -131 -45 -25 -199 -25 -244 0 -55 29 -103 78 -131 131 l-27 51 -3 388 -3
387 -242 -2 -242 -3 -5 -390 c-5 -378 -6 -391 -27 -431 -31 -58 -79 -103 -138
-130 -46 -22 -63 -24 -222 -24 l-173 0 -2 488 -3 487 -242 3 -243 2 0 -490z"/>
<path d="M0 515 l0 -485 2430 0 2430 0 0 485 0 485 -2430 0 -2430 0 0 -485z"/>
<path d="M14040 730 l0 -240 365 0 365 0 0 -245 0 -245 245 0 245 0 0 485 0
485 -610 0 -610 0 0 -240z"/>
</g>
</svg>
