<svg width="35" height="28" viewBox="0 0 35 28" fill="none" xmlns="http://www.w3.org/2000/svg">
<path d="M34.1449 3.27758C32.9201 3.80592 31.5873 4.18617 30.2144 4.33426C31.6398 3.48746 32.7072 2.14964 33.2163 0.571823C31.8788 1.3675 30.4135 1.92544 28.8855 2.22089C28.2469 1.53816 27.4745 0.994256 26.6165 0.623086C25.7584 0.251916 24.8332 0.0614281 23.8983 0.0634932C20.1158 0.0634932 17.0739 3.12948 17.0739 6.89192C17.0739 7.42027 17.1379 7.94861 17.242 8.45694C11.5783 8.16075 6.52702 5.45499 3.16884 1.3123C2.55695 2.35744 2.23629 3.54746 2.24024 4.75854C2.24024 7.12808 3.44502 9.21743 5.28221 10.4462C4.19953 10.4036 3.1422 10.106 2.19621 9.57767V9.66172C2.19621 12.9799 4.54173 15.7297 7.66776 16.3621C7.08082 16.5145 6.47702 16.5925 5.8706 16.5942C5.42631 16.5942 5.00604 16.5502 4.58176 16.4902C5.44632 19.1959 7.96395 21.1612 10.9619 21.2252C8.61638 23.0624 5.67847 24.1431 2.4884 24.1431C1.91603 24.1431 1.38769 24.1231 0.839333 24.0591C3.8653 26.0003 7.45563 27.121 11.3221 27.121C23.8743 27.121 30.7427 16.7223 30.7427 7.69645C30.7427 7.40025 30.7427 7.10406 30.7227 6.80787C32.0516 5.83524 33.2163 4.63046 34.1449 3.27758Z" fill="#FF5722"/>
</svg>
